<mxfile host="app.diagrams.net" agent="Mozilla/5.0 (X11; Ubuntu; Linux x86_64; rv:128.0) Gecko/20100101 Firefox/128.0" version="24.7.6">
  <diagram name="Page-1" id="7q-tn7Y6c_3DSYt4PeSG">
    <mxGraphModel dx="810" dy="483" grid="1" gridSize="10" guides="1" tooltips="1" connect="1" arrows="1" fold="1" page="1" pageScale="1" pageWidth="850" pageHeight="1100" math="0" shadow="0">
      <root>
        <mxCell id="0" />
        <mxCell id="1" parent="0" />
        <mxCell id="VAeA1Mxrm4jSKNrtZGrq-1" value="Region" style="points=[[0,0],[0.25,0],[0.5,0],[0.75,0],[1,0],[1,0.25],[1,0.5],[1,0.75],[1,1],[0.75,1],[0.5,1],[0.25,1],[0,1],[0,0.75],[0,0.5],[0,0.25]];outlineConnect=0;gradientColor=none;html=1;whiteSpace=wrap;fontSize=12;fontStyle=0;container=1;pointerEvents=0;collapsible=0;recursiveResize=0;shape=mxgraph.aws4.group;grIcon=mxgraph.aws4.group_region;strokeColor=#A680B8;fillColor=none;verticalAlign=top;align=left;spacingLeft=30;fontColor=#147EBA;strokeWidth=2;" vertex="1" parent="1">
          <mxGeometry x="90" y="60" width="720" height="400" as="geometry" />
        </mxCell>
        <mxCell id="VAeA1Mxrm4jSKNrtZGrq-2" value="VPC" style="sketch=0;outlineConnect=0;gradientColor=none;html=1;whiteSpace=wrap;fontSize=12;fontStyle=0;shape=mxgraph.aws4.group;grIcon=mxgraph.aws4.group_vpc;strokeColor=#879196;fillColor=none;verticalAlign=top;align=left;spacingLeft=30;fontColor=#879196;dashed=0;strokeWidth=3;" vertex="1" parent="VAeA1Mxrm4jSKNrtZGrq-1">
          <mxGeometry x="30" y="40" width="660" height="320" as="geometry" />
        </mxCell>
        <mxCell id="VAeA1Mxrm4jSKNrtZGrq-7" value="" style="rounded=1;arcSize=10;dashed=1;strokeColor=#F59D56;fillColor=none;gradientColor=none;dashPattern=8 4;strokeWidth=2;align=center;verticalAlign=top;fontFamily=Helvetica;fontSize=12;fontColor=default;" vertex="1" parent="VAeA1Mxrm4jSKNrtZGrq-1">
          <mxGeometry x="80" y="60" width="210" height="270" as="geometry" />
        </mxCell>
        <mxCell id="VAeA1Mxrm4jSKNrtZGrq-8" value="AZ" style="text;strokeColor=#b85450;align=center;fillColor=#f8cecc;html=1;verticalAlign=middle;whiteSpace=wrap;rounded=0;fontFamily=Helvetica;fontSize=12;" vertex="1" parent="VAeA1Mxrm4jSKNrtZGrq-1">
          <mxGeometry x="440" y="70" width="50" height="20" as="geometry" />
        </mxCell>
        <mxCell id="VAeA1Mxrm4jSKNrtZGrq-9" value="" style="rounded=1;arcSize=10;dashed=1;strokeColor=#F59D56;fillColor=none;gradientColor=none;dashPattern=8 4;strokeWidth=2;align=center;verticalAlign=top;fontFamily=Helvetica;fontSize=12;fontColor=default;" vertex="1" parent="VAeA1Mxrm4jSKNrtZGrq-1">
          <mxGeometry x="360" y="60" width="210" height="270" as="geometry" />
        </mxCell>
        <mxCell id="VAeA1Mxrm4jSKNrtZGrq-13" value="AZ" style="text;strokeColor=#b85450;align=center;fillColor=#f8cecc;html=1;verticalAlign=middle;whiteSpace=wrap;rounded=0;fontFamily=Helvetica;fontSize=12;" vertex="1" parent="VAeA1Mxrm4jSKNrtZGrq-1">
          <mxGeometry x="150" y="70" width="50" height="20" as="geometry" />
        </mxCell>
        <mxCell id="VAeA1Mxrm4jSKNrtZGrq-15" value="Public subnet" style="points=[[0,0],[0.25,0],[0.5,0],[0.75,0],[1,0],[1,0.25],[1,0.5],[1,0.75],[1,1],[0.75,1],[0.5,1],[0.25,1],[0,1],[0,0.75],[0,0.5],[0,0.25]];outlineConnect=0;gradientColor=none;html=1;whiteSpace=wrap;fontSize=12;fontStyle=0;container=1;pointerEvents=0;collapsible=0;recursiveResize=0;shape=mxgraph.aws4.group;grIcon=mxgraph.aws4.group_security_group;grStroke=0;strokeColor=#7AA116;fillColor=#F2F6E8;verticalAlign=top;align=left;spacingLeft=30;fontColor=#248814;dashed=0;strokeWidth=3;fontFamily=Helvetica;" vertex="1" parent="VAeA1Mxrm4jSKNrtZGrq-1">
          <mxGeometry x="90" y="130" width="180" height="130" as="geometry" />
        </mxCell>
        <mxCell id="VAeA1Mxrm4jSKNrtZGrq-16" value="Private subnet" style="points=[[0,0],[0.25,0],[0.5,0],[0.75,0],[1,0],[1,0.25],[1,0.5],[1,0.75],[1,1],[0.75,1],[0.5,1],[0.25,1],[0,1],[0,0.75],[0,0.5],[0,0.25]];outlineConnect=0;gradientColor=none;html=1;whiteSpace=wrap;fontSize=12;fontStyle=0;container=1;pointerEvents=0;collapsible=0;recursiveResize=0;shape=mxgraph.aws4.group;grIcon=mxgraph.aws4.group_security_group;grStroke=0;strokeColor=#00A4A6;fillColor=#E6F6F7;verticalAlign=top;align=left;spacingLeft=30;fontColor=#147EBA;strokeWidth=5;fontFamily=Helvetica;" vertex="1" parent="VAeA1Mxrm4jSKNrtZGrq-1">
          <mxGeometry x="390" y="130" width="150" height="130" as="geometry" />
        </mxCell>
        <mxCell id="VAeA1Mxrm4jSKNrtZGrq-18" value="" style="outlineConnect=0;dashed=0;verticalLabelPosition=bottom;verticalAlign=top;align=center;html=1;shape=mxgraph.aws3.dynamo_db;fillColor=#2E73B8;gradientColor=none;strokeColor=default;strokeWidth=3;fontFamily=Helvetica;fontSize=12;fontColor=default;" vertex="1" parent="VAeA1Mxrm4jSKNrtZGrq-16">
          <mxGeometry x="40" y="45" width="50" height="40" as="geometry" />
        </mxCell>
        <mxCell id="VAeA1Mxrm4jSKNrtZGrq-17" value="" style="outlineConnect=0;dashed=0;verticalLabelPosition=bottom;verticalAlign=top;align=center;html=1;shape=mxgraph.aws3.vpc_nat_gateway;fillColor=#F58536;gradientColor=none;strokeColor=default;strokeWidth=3;fontFamily=Helvetica;fontSize=12;fontColor=default;" vertex="1" parent="VAeA1Mxrm4jSKNrtZGrq-1">
          <mxGeometry x="210" y="220" width="30" height="30" as="geometry" />
        </mxCell>
        <mxCell id="VAeA1Mxrm4jSKNrtZGrq-23" value="" style="sketch=0;points=[[0,0,0],[0.25,0,0],[0.5,0,0],[0.75,0,0],[1,0,0],[0,1,0],[0.25,1,0],[0.5,1,0],[0.75,1,0],[1,1,0],[0,0.25,0],[0,0.5,0],[0,0.75,0],[1,0.25,0],[1,0.5,0],[1,0.75,0]];outlineConnect=0;fontColor=#232F3E;fillColor=#ED7100;strokeColor=#ffffff;dashed=0;verticalLabelPosition=bottom;verticalAlign=top;align=center;html=1;fontSize=12;fontStyle=0;aspect=fixed;shape=mxgraph.aws4.resourceIcon;resIcon=mxgraph.aws4.ec2;strokeWidth=3;fontFamily=Helvetica;" vertex="1" parent="VAeA1Mxrm4jSKNrtZGrq-1">
          <mxGeometry x="150" y="160" width="50" height="50" as="geometry" />
        </mxCell>
        <mxCell id="VAeA1Mxrm4jSKNrtZGrq-4" style="edgeStyle=orthogonalEdgeStyle;rounded=0;orthogonalLoop=1;jettySize=auto;html=1;exitX=0.5;exitY=1;exitDx=0;exitDy=0;exitPerimeter=0;" edge="1" parent="1">
          <mxGeometry relative="1" as="geometry">
            <mxPoint x="355" y="100" as="sourcePoint" />
            <mxPoint x="355" y="100" as="targetPoint" />
          </mxGeometry>
        </mxCell>
        <mxCell id="VAeA1Mxrm4jSKNrtZGrq-6" value="" style="edgeStyle=orthogonalEdgeStyle;rounded=0;orthogonalLoop=1;jettySize=auto;html=1;fontFamily=Helvetica;fontSize=12;fontColor=default;" edge="1" parent="1" source="VAeA1Mxrm4jSKNrtZGrq-5" target="VAeA1Mxrm4jSKNrtZGrq-2">
          <mxGeometry relative="1" as="geometry">
            <Array as="points">
              <mxPoint x="355" y="120" />
              <mxPoint x="400" y="120" />
            </Array>
          </mxGeometry>
        </mxCell>
        <mxCell id="VAeA1Mxrm4jSKNrtZGrq-5" value="" style="outlineConnect=0;dashed=0;verticalLabelPosition=bottom;verticalAlign=top;align=center;html=1;shape=mxgraph.aws3.internet_gateway;fillColor=#F58536;gradientColor=none;strokeColor=default;strokeWidth=3;fontFamily=Helvetica;fontSize=12;fontColor=default;" vertex="1" parent="1">
          <mxGeometry x="330" y="50" width="50" height="50" as="geometry" />
        </mxCell>
      </root>
    </mxGraphModel>
  </diagram>
</mxfile>
